<svg width="100%" height="100%" viewBox="0 0 16 16" fill="none" xmlns="http://www.w3.org/2000/svg">
<g opacity="0.7">
<rect width="16" height="16" rx="4" fill="#F2F3F8"/>
<path fill-rule="evenodd" clip-rule="evenodd" d="M6.71249 8.44824C6.9388 8.44824 7.12225 8.63539 7.12225 8.86624C7.12225 9.32795 7.48917 9.70223 7.94177 9.70223C8.39438 9.70223 8.76129 9.32795 8.76129 8.86624C8.76129 8.63539 8.94475 8.44824 9.17105 8.44824C9.39736 8.44824 9.58081 8.63539 9.58081 8.86624C9.58081 9.78965 8.84699 10.5382 7.94177 10.5382C7.03656 10.5382 6.30273 9.78965 6.30273 8.86624C6.30273 8.63539 6.48619 8.44824 6.71249 8.44824Z" fill="#BCBFCD"/>
<g clip-path="url(#clip0_4037_12935)">
<path d="M4.04934 5.05176L4.28624 5.66452C4.49553 6.20584 4.9148 6.63402 5.44408 6.84696L6.04691 7.08949L5.44408 7.33203C4.9148 7.54497 4.49553 7.97315 4.28624 8.51447L4.04934 9.12723L3.81243 8.51447C3.60314 7.97315 3.18387 7.54497 2.65459 7.33203L2.05176 7.08949L2.65459 6.84696C3.18387 6.63402 3.60314 6.20584 3.81243 5.66452L4.04934 5.05176Z" fill="#BCBFCD"/>
</g>
<g clip-path="url(#clip1_4037_12935)">
<path d="M11.937 5.05176L12.1739 5.66452C12.3832 6.20584 12.8025 6.63402 13.3318 6.84696L13.9346 7.08949L13.3318 7.33203C12.8025 7.54497 12.3832 7.97315 12.1739 8.51447L11.937 9.12723L11.7001 8.51447C11.4908 7.97315 11.0716 7.54497 10.5423 7.33203L9.93945 7.08949L10.5423 6.84696C11.0716 6.63402 11.4908 6.20584 11.7001 5.66452L11.937 5.05176Z" fill="#BCBFCD"/>
</g>
</g>
<defs>
<clipPath id="clip0_4037_12935">
<rect width="5.32688" height="5.43396" fill="white" transform="translate(1.38574 4.37305)"/>
</clipPath>
<clipPath id="clip1_4037_12935">
<rect width="5.32688" height="5.43396" fill="white" transform="translate(9.27344 4.37305)"/>
</clipPath>
</defs>
</svg>
