<?xml version="1.0" encoding="UTF-8"?>
<svg xmlns="http://www.w3.org/2000/svg" xmlns:xlink="http://www.w3.org/1999/xlink" width="32px" height="32px" viewBox="0 0 32 32" version="1.1">
<g id="surface1">
<path style=" stroke:none;fill-rule:nonzero;fill:rgb(100%,100%,100%);fill-opacity:1;" d="M 15.203125 0.03125 C 10.132812 0.269531 5.488281 2.910156 2.652344 7.164062 C 1.222656 9.320312 0.355469 11.738281 0.0625 14.398438 C -0.015625 15.144531 -0.015625 16.886719 0.0625 17.632812 C 0.464844 21.300781 1.996094 24.574219 4.519531 27.167969 C 5.523438 28.199219 6.613281 29.058594 7.847656 29.796875 C 8.5 30.1875 9.917969 30.863281 10.355469 30.996094 L 10.425781 31.015625 L 10.429688 25.277344 C 10.429688 19.867188 10.433594 19.539062 10.484375 19.617188 C 11.429688 21.003906 12.765625 21.964844 14.300781 22.371094 C 17.054688 23.089844 19.902344 22.007812 21.484375 19.640625 C 22.191406 18.574219 22.558594 17.34375 22.558594 16.015625 C 22.558594 15.414062 22.5 14.945312 22.363281 14.402344 C 22.3125 14.199219 22.269531 14.027344 22.269531 14.019531 C 22.269531 14 26.238281 14.019531 26.25 14.039062 C 26.261719 14.058594 26.300781 14.273438 26.339844 14.53125 C 26.402344 14.933594 26.410156 15.113281 26.414062 16 C 26.414062 16.8125 26.402344 17.082031 26.355469 17.390625 C 26.003906 19.730469 25.054688 21.675781 23.472656 23.292969 C 21.773438 25.03125 19.722656 26.054688 17.261719 26.390625 C 16.5625 26.484375 14.859375 26.460938 14.484375 26.351562 C 14.429688 26.335938 14.425781 26.484375 14.425781 29.132812 L 14.425781 31.933594 L 14.53125 31.953125 C 14.585938 31.964844 15.113281 31.980469 15.691406 31.992188 C 16.523438 32.007812 16.875 32 17.339844 31.960938 C 19.375 31.785156 21.179688 31.289062 22.957031 30.421875 C 23.730469 30.046875 24.125 29.820312 24.863281 29.328125 C 26.679688 28.121094 28.15625 26.640625 29.359375 24.816406 C 31.820312 21.105469 32.605469 16.464844 31.519531 12.121094 C 30.386719 7.601562 27.367188 3.832031 23.195312 1.722656 C 22.691406 1.46875 21.671875 1.019531 21.59375 1.019531 C 21.578125 1.019531 21.566406 3.242188 21.566406 6.722656 L 21.566406 12.429688 L 21.5 12.320312 C 21.238281 11.890625 20.566406 11.15625 20.109375 10.796875 C 19.113281 10.015625 18.015625 9.558594 16.796875 9.40625 C 16.40625 9.355469 15.492188 9.367188 15.101562 9.421875 C 13.972656 9.582031 12.964844 10 12.035156 10.691406 C 11.09375 11.398438 10.332031 12.402344 9.882812 13.53125 C 9.394531 14.765625 9.300781 16.238281 9.628906 17.535156 C 9.679688 17.738281 9.722656 17.90625 9.722656 17.914062 C 9.722656 17.917969 8.824219 17.917969 7.730469 17.914062 L 5.738281 17.90625 L 5.699219 17.679688 C 5.488281 16.425781 5.527344 14.914062 5.804688 13.671875 C 5.996094 12.808594 6.222656 12.167969 6.648438 11.3125 C 8.230469 8.101562 11.28125 5.960938 14.859375 5.546875 C 15.4375 5.480469 16.574219 5.480469 17.117188 5.546875 C 17.335938 5.574219 17.527344 5.597656 17.542969 5.597656 C 17.554688 5.597656 17.566406 4.359375 17.566406 2.847656 L 17.566406 0.0976562 L 17.476562 0.078125 C 17.375 0.0546875 16.046875 -0.0078125 15.851562 0 C 15.78125 0 15.492188 0.015625 15.207031 0.03125 Z M 15.203125 0.03125 "/>
</g>
</svg>
