<svg width="268" height="148" viewBox="0 0 268 148" fill="none" xmlns="http://www.w3.org/2000/svg">
<path d="M187.007 148C168.345 148 149.295 141.026 130.17 127.148C115.815 116.753 104.185 107.392 93.9192 99.1322L92.9667 98.3599L87.5103 103.419C71.2547 118.479 58.0527 127.812 42.4675 127.812C19.8422 127.82 0 109.601 0 88.8179C0 66.8069 21.3435 49.7002 39.7079 49.7002C58.9151 49.7002 73.638 58.4659 91.9515 72.5916C117.619 48.8776 143.129 25.9013 162.45 13.2507C187.25 -2.98721 225.379 -7.00325 250.254 16.7261C278.477 43.6452 268.077 95.4676 248.831 117.93C241.646 126.314 226.163 141.142 203.169 146.213C197.865 147.394 192.445 147.993 187.007 148V148ZM107.478 84.9332C117.297 92.834 128.406 101.735 141.867 111.489C159.141 124.005 174.35 128.507 187.282 128.507C210.464 128.507 226.327 114.046 233.744 105.392C254.542 81.1218 249.764 43.3594 236.519 30.7205C217.092 12.1849 188.121 19.8115 173.386 29.4578C155.809 40.9653 131.848 62.4434 107.478 84.9332ZM39.7079 69.1625C30.9118 69.1625 19.752 78.4303 19.752 88.8218C19.752 98.8619 30.7903 108.373 42.4596 108.373C50.2993 108.373 59.1268 103.013 73.9673 89.262L77.3893 86.0917C63.1564 75.3256 52.2279 69.1625 39.7079 69.1625Z" fill="#2FE4AB"/>
<path opacity="0.92" d="M73.9678 89.2613C59.1273 103.012 50.292 108.372 42.4602 108.372C40.5329 108.366 38.6146 108.114 36.7529 107.623V127.433C38.6442 127.69 40.5511 127.819 42.4602 127.819C58.0455 127.819 71.2475 118.486 87.503 103.426L92.9594 98.3669L77.3898 86.0793L73.9678 89.2613Z" fill="url(#paint0_linear_2970_734)"/>
<g opacity="0.92">
<path opacity="0.92" d="M91.9512 72.5979L107.478 84.9356C118.524 74.7372 129.487 64.755 139.812 55.8078L125.826 42.0181C114.921 51.4867 103.456 61.9631 91.9512 72.5979Z" fill="url(#paint1_linear_2970_734)"/>
</g>
<defs>
<linearGradient id="paint0_linear_2970_734" x1="80.1572" y1="87.929" x2="49.3761" y2="119.171" gradientUnits="userSpaceOnUse">
<stop stop-color="#0F7C76"/>
<stop offset="1" stop-color="#2FE4AB"/>
</linearGradient>
<linearGradient id="paint1_linear_2970_734" x1="100.551" y1="79.3055" x2="130.923" y2="48.4717" gradientUnits="userSpaceOnUse">
<stop stop-color="#0F7C76"/>
<stop offset="1" stop-color="#2FE4AB"/>
</linearGradient>
</defs>
</svg>
