<?xml version="1.0" standalone="no"?>
<!DOCTYPE svg PUBLIC "-//W3C//DTD SVG 20010904//EN"
 "http://www.w3.org/TR/2001/REC-SVG-20010904/DTD/svg10.dtd">
<svg version="1.0" xmlns="http://www.w3.org/2000/svg"
 width="1001.000000pt" height="1001.000000pt" viewBox="0 0 1001.000000 1001.000000"
 preserveAspectRatio="xMidYMid meet">

<g transform="translate(0.000000,1001.000000) scale(0.100000,-0.100000)"
fill="#000000" stroke="none">
<path d="M4763 9999 c-1585 -75 -3036 -900 -3921 -2229 -447 -673 -718 -1429
-809 -2260 -25 -233 -25 -777 0 -1010 125 -1146 603 -2169 1392 -2979 314
-322 654 -590 1040 -821 204 -122 646 -333 783 -375 l22 -6 1 1793 c0 1690 1
1792 17 1768 295 -433 713 -734 1193 -860 860 -225 1749 113 2243 853 222 333
336 717 336 1132 0 188 -18 334 -61 504 -16 64 -29 117 -29 119 0 7 1240 1
1244 -6 3 -5 15 -73 28 -153 19 -126 22 -182 23 -459 0 -254 -4 -338 -18 -435
-110 -731 -407 -1338 -901 -1844 -531 -543 -1172 -862 -1941 -967 -218 -30
-750 -22 -867 12 -17 5 -18 -41 -18 -869 l0 -875 33 -6 c17 -4 181 -9 362 -12
260 -5 369 -3 515 10 635 55 1199 210 1755 480 241 117 364 188 595 342 567
377 1029 840 1405 1409 768 1160 1014 2610 674 3966 -354 1412 -1297 2590
-2600 3249 -158 80 -476 220 -500 220 -5 0 -9 -695 -9 -1782 l0 -1783 -21 34
c-82 134 -291 364 -434 476 -311 244 -654 387 -1035 435 -122 15 -407 12 -529
-5 -353 -50 -668 -181 -958 -397 -295 -220 -533 -534 -673 -887 -153 -386
-182 -845 -79 -1251 16 -63 29 -116 29 -118 0 -1 -280 -1 -622 0 l-623 3 -12
70 c-66 392 -54 864 33 1252 60 270 131 470 264 738 494 1003 1447 1671 2565
1800 181 21 535 21 705 1 69 -9 128 -16 133 -16 4 0 7 387 7 859 l0 859 -27 6
c-32 7 -447 27 -508 24 -22 0 -113 -5 -202 -9z"/>
</g>
</svg>
