<?xml version="1.0" encoding="UTF-8"?>
<svg id="Layer_1" data-name="Layer 1" xmlns="http://www.w3.org/2000/svg" viewBox="0 0 3000 819.18">
  <defs>
    <style>
      .cls-1 {
        fill: #fff;
        stroke-width: 0px;
      }
    </style>
  </defs>
  <path class="cls-1" d="m396.41.42c-58.68,1.8-117.27,16.64-169.39,42.78-41.06,20.49-74.74,44.83-107.19,77.44-25.57,25.65-43.68,48.84-61.87,79.08C-13.1,318.15-19.25,466.72,41.89,590.39c20.9,42.37,44.91,75.89,77.94,108.91,33.27,33.44,70.56,59.91,112.27,79.98,11.23,5.41,32.94,14.67,34.34,14.67.25,0,.49-66.13.57-146.94v-146.86l1.8,2.38c.98,1.31,4.02,5.41,6.72,9.01,5.9,8.03,19.18,21.88,27.21,28.52,14.75,12.05,36.06,23.85,53.68,29.67,35.32,11.72,74.74,11.23,110.14-1.23,51.55-18.19,92.36-62.69,105.96-115.63,4.02-15.41,5.24-25.57,5.24-42.86s-1.15-26.47-4.67-40.57c-1.15-4.43-2.13-8.52-2.29-9.1-.25-.98,7.95-1.15,50.4-1.39l50.56-.16.82,1.97c.41,1.07,1.56,8.2,2.54,15.73,2.13,16.14,2.54,46.47.82,60.97-7.54,63.76-33.44,117.76-77.53,161.85-52.12,52.04-123.5,80.39-196.27,78.02-12.7-.49-23.44-1.39-30.49-2.62l-2.29-.41v143.25l2.7.49c5.74,1.15,55.15,1.56,67.77.57,90.23-6.88,172.67-41.55,240.36-100.88,53.1-46.55,94.16-107.77,116.86-174.06,16.31-47.53,22.95-90.8,21.96-142.27-1.23-62.53-14.92-118.91-42.45-173.98-40.32-80.8-105.88-146.04-186.36-185.37-13.6-6.64-35.32-15.98-37.21-15.98-.66,0-.9,38.11-.9,145.63v145.55l-4.75-6.64c-27.13-38.03-68.1-62.94-113.99-69.33-11.96-1.72-34.91-1.72-46.88,0-65.4,9.1-119.89,56.3-138.09,119.57-4.84,16.72-6.39,27.95-6.39,47.12,0,17.62,1.48,29.58,5.24,43.35.9,3.2,1.64,6.15,1.64,6.64,0,.57-17.05.82-50.73.82h-50.73l-.49-2.21c-4.34-20.32-5.65-54.5-2.95-77.69,4.92-42.86,19.18-82.2,42.7-118.01,9.51-14.51,18.68-25.81,31.39-38.84,22.7-23.11,43.19-38.35,70.15-52.04,35.16-17.87,69.74-27.21,108.34-29.09,13.69-.66,36.06.08,46.14,1.56,3.2.41,6.23.82,6.8.82.74,0,.98-14.59.98-70.4V2.47l-3.03-.49c-3.93-.66-35.48-2.13-40.4-1.97-2.05.08-6.8.25-10.65.41Z"/>
  <path class="cls-1" d="m1811.71,109.66c-69.41,5.41-128.58,29.26-178,71.95-24.5,21.23-48.76,52.28-63.43,81.54l-3.03,5.9-2.62-9.83c-6.56-23.77-15.24-41.39-29.75-60.64-5.49-7.21-20-21.88-28.03-28.19-33.19-26.39-74.25-41.88-127.84-48.19-10.49-1.23-24.83-1.39-123.91-1.64l-112.11-.33v570.46h117.19l.16-91.54.25-91.62,54.91-.49c55.48-.49,60.89-.74,81.54-4.1,58.19-9.26,106.78-35.08,135.63-71.95l4.1-5.24.57,6.06c4.1,44.34,13.11,77.44,30.57,112.27,13.69,27.29,30.57,50.56,52.45,72.53,45.81,45.89,103.59,73.84,172.1,83.18,17.78,2.46,57.78,3.03,77.2,1.23,51.88-5,98.1-20.98,138.91-48.02,17.78-11.8,28.93-20.82,43.35-35.24,26.14-26.06,46.63-56.22,60.64-89.16l3.61-8.44.25,85.31.16,85.23h117.19v-122.93l35.4-44.66c19.5-24.59,35.65-44.66,35.98-44.66.25,0,39.17,47.78,86.38,106.13l85.88,106.13h75.72c41.55,0,75.64-.16,75.64-.49,0-.25-55.73-69.08-123.83-153-68.18-83.92-123.91-152.92-123.99-153.41s36.96-47.53,82.28-104.57l82.36-103.59.25,23.52.16,23.6h168v467.94h117.19V222.76h168.82v-102.44h-548.83l-81.87,103.01c-95.8,120.71-101.05,127.43-126.2,163.98l-9.34,13.52V120.32h-117.19l-.16,85.72-.25,85.8-2.79-6.88c-3.61-8.85-11.15-23.93-16.55-33.19-28.76-48.84-67.77-85.39-117.76-110.47-33.19-16.64-65.07-25.9-104.24-30.4-13.28-1.56-49.91-2.21-63.1-1.23Zm55.73,104.08c30.57,5.33,57.86,17.87,80.89,37.21,34.99,29.26,57.53,69.74,65.89,118.58,2.21,12.95,3.03,44.91,1.56,59.5-4.59,46.06-23.19,86.95-53.6,118.17-13.85,14.1-27.04,24.18-43.27,32.78-25.16,13.44-51.63,19.83-81.79,19.83-29.5.08-52.86-5.16-77.85-17.37-19.5-9.51-34.91-20.73-49.5-36.06-29.09-30.57-46.38-68.84-52.2-115.06-1.48-11.96-1.31-41.14.41-54.09,7.46-57.78,36.55-106.95,80.8-136.61,21.14-14.26,48.76-24.67,73.35-27.62,4.1-.49,8.52-1.07,9.83-1.23,1.39-.25,9.83-.25,18.85-.08,12.13.25,19.09.74,26.63,2.05Zm-507.69,10.9c31.14,5,51.22,13.44,66.95,28.36,16.88,15.82,24.42,34.67,24.42,60.48,0,50.89-32.7,81.46-95.88,89.74-5.33.74-21.39,1.07-51.22,1.07h-43.43l-.25-90.8-.16-90.88,45.65.41c36.55.25,47.37.57,53.92,1.64Z"/>
</svg>