<svg width="40" height="22" viewBox="0 0 40 22" fill="none" xmlns="http://www.w3.org/2000/svg">
<path d="M27.7909 22C25.0581 22 22.2683 20.9633 19.4677 18.9003C17.3657 17.3551 15.6625 15.9636 14.1592 14.7358L14.0197 14.621L13.2207 15.373C10.8402 17.6116 8.90695 18.999 6.62466 18.999C3.31143 19.0002 0.405762 16.292 0.405762 13.2026C0.405762 9.93073 3.53128 7.38784 6.22055 7.38784C9.03323 7.38784 11.1892 8.69085 13.871 10.7906C17.6297 7.26557 21.3654 3.85017 24.1947 1.9697C27.8265 -0.444043 33.41 -1.04102 37.0527 2.48631C41.1856 6.48778 39.6628 14.1911 36.8443 17.5301C35.7922 18.7763 33.5248 20.9805 30.1576 21.7342C29.3809 21.9098 28.5872 21.999 27.7909 22ZM16.1447 12.6252C17.5826 13.7996 19.2094 15.1227 21.1806 16.5727C23.7103 18.4331 25.9374 19.1024 27.8311 19.1024C31.2259 19.1024 33.5489 16.9527 34.6349 15.6663C37.6807 12.0586 36.9809 6.4453 35.0413 4.56655C32.1965 1.81127 27.954 2.94495 25.7962 4.37884C23.2223 6.08941 19.7134 9.28209 16.1447 12.6252ZM6.22055 10.2809C4.93246 10.2809 3.29823 11.6585 3.29823 13.2032C3.29823 14.6956 4.91466 16.1094 6.62351 16.1094C7.77154 16.1094 9.06423 15.3127 11.2375 13.2686L11.7386 12.7974C9.65432 11.197 8.05396 10.2809 6.22055 10.2809Z" fill="#2FE4AB"/>
<path opacity="0.92" d="M11.2373 13.2686C9.06408 15.3127 7.77025 16.1094 6.62337 16.1094C6.34114 16.1085 6.06022 16.071 5.7876 15.998V18.9427C6.06455 18.981 6.34379 19.0001 6.62337 19.0001C8.90565 19.0001 10.8389 17.6127 13.2194 15.3741L14.0184 14.6221L11.7384 12.7956L11.2373 13.2686Z" fill="url(#paint0_linear_4558_3893)"/>
<g opacity="0.92">
<path opacity="0.92" d="M13.8711 10.7917L16.1448 12.6257C17.7623 11.1097 19.3679 9.62587 20.8798 8.29588L18.8317 6.24606C17.2348 7.65355 15.5558 9.21086 13.8711 10.7917Z" fill="url(#paint1_linear_4558_3893)"/>
</g>
<defs>
<linearGradient id="paint0_linear_4558_3893" x1="12.1437" y1="13.0705" x2="7.56762" y2="17.646" gradientUnits="userSpaceOnUse">
<stop stop-color="#0F7C76"/>
<stop offset="1" stop-color="#2FE4AB"/>
</linearGradient>
<linearGradient id="paint1_linear_4558_3893" x1="15.1305" y1="11.7888" x2="19.6457" y2="7.27298" gradientUnits="userSpaceOnUse">
<stop stop-color="#0F7C76"/>
<stop offset="1" stop-color="#2FE4AB"/>
</linearGradient>
</defs>
</svg>
