<svg width="103" height="24" viewBox="0 0 103 24" fill="none" xmlns="http://www.w3.org/2000/svg">
<path d="M59.7624 20.7413C58.0583 20.7413 56.5696 20.3681 55.2963 19.6216C54.0305 18.8843 52.9941 17.8102 52.3024 16.5188C51.5806 15.1962 51.2197 13.6668 51.2197 11.9306C51.2197 10.1943 51.5806 8.66511 52.3024 7.34298C52.9937 6.05178 54.0294 4.97751 55.2945 4.2395C56.5682 3.49348 58.0569 3.12026 59.7606 3.11984C61.448 3.11984 62.9327 3.49306 64.2148 4.2395C65.4837 4.97297 66.5209 6.04837 67.208 7.34298C67.9219 8.66553 68.279 10.1947 68.2795 11.9306C68.2799 13.6664 67.9227 15.1958 67.208 16.5188C66.5211 17.8133 65.4838 18.8886 64.2148 19.6216C62.9344 20.3681 61.4503 20.7413 59.7624 20.7413ZM59.7624 17.9422C61.3847 17.9422 62.6789 17.4067 63.6449 16.3359C64.6109 15.2651 65.0937 13.7967 65.0933 11.9306C65.0933 10.0649 64.6105 8.59644 63.6449 7.52521C62.6793 6.45397 61.3851 5.91857 59.7624 5.91899C58.1401 5.91899 56.842 6.45439 55.8681 7.52521C54.8941 8.59602 54.4073 10.0645 54.4077 11.9306C54.4077 13.7967 54.8945 15.2651 55.8681 16.3359C56.8416 17.4067 58.1397 17.9422 59.7624 17.9422Z" fill="#091011"/>
<path d="M77.4242 20.7412C76.5158 20.7412 75.7207 20.5709 75.039 20.2302C74.3725 19.9026 73.8023 19.4079 73.3839 18.7943L73.0433 20.4494H70.2686V2.92502H73.3839V10.1051C73.805 9.5409 74.3294 9.0619 74.9294 8.69363C75.5707 8.28785 76.4023 8.08496 77.4242 8.08496C78.5602 8.08496 79.5744 8.36091 80.467 8.91281C81.3607 9.46636 82.0913 10.2474 82.5842 11.1759C83.1031 12.1332 83.3627 13.2203 83.3632 14.4372C83.3636 15.6541 83.1039 16.7373 82.5842 17.6866C82.0909 18.6084 81.3601 19.3815 80.4676 19.9259C79.5742 20.4695 78.5597 20.7412 77.4242 20.7412ZM76.7673 18.0153C77.7567 18.0153 78.5762 17.6826 79.2258 17.0172C79.8754 16.3517 80.1998 15.4917 80.1989 14.4372C80.1989 13.3827 79.8746 12.5147 79.2258 11.8334C78.5771 11.1521 77.7576 10.8113 76.7673 10.8108C75.7608 10.8108 74.9373 11.1475 74.2969 11.8209C73.6565 12.4943 73.3361 13.3585 73.3357 14.4134C73.3357 15.4679 73.6561 16.3319 74.2969 17.0053C74.9378 17.6787 75.7612 18.0153 76.7673 18.0153Z" fill="#091011"/>
<path d="M91.042 20.7412C89.8731 20.7412 88.8225 20.4734 87.8903 19.9378C86.9642 19.4095 86.1987 18.6399 85.6754 17.711C85.1327 16.7617 84.8613 15.6625 84.8613 14.4134C84.8613 13.1643 85.1371 12.0649 85.6885 11.1151C86.2189 10.1873 86.988 9.41845 87.916 8.88835C88.849 8.35274 89.8996 8.08493 91.0677 8.08493C92.2199 8.08493 93.2636 8.35274 94.1987 8.88835C95.1245 9.41702 95.8899 10.1865 96.4136 11.1151C96.9563 12.0645 97.2277 13.1639 97.2277 14.4134C97.2277 15.6629 96.9563 16.7621 96.4136 17.711C95.8865 18.6428 95.1147 19.4128 94.1818 19.9378C93.2408 20.4738 92.1942 20.7416 91.042 20.7412ZM91.042 18.0397C91.8536 18.0397 92.5595 17.7354 93.1598 17.1267C93.7601 16.5181 94.0603 15.6136 94.0603 14.4134C94.0603 13.2123 93.7601 12.3077 93.1598 11.6994C92.5595 11.0911 91.8617 10.7868 91.0664 10.7864C90.239 10.7864 89.5293 11.0907 88.9373 11.6994C88.3453 12.3081 88.0493 13.2127 88.0493 14.4134C88.0493 15.614 88.3453 16.5185 88.9373 17.1267C89.5293 17.735 90.2308 18.0393 91.042 18.0397Z" fill="#091011"/>
<path d="M99.1289 20.4494V2.92502H102.244V20.4494H99.1289Z" fill="#091011"/>
<path d="M29.8751 24C26.8937 24 23.8503 22.8691 20.7951 20.6185C18.5019 18.9327 16.6439 17.4148 15.0039 16.0753L14.8517 15.9501L13.9801 16.7704C11.3832 19.2126 9.27412 20.7262 6.78432 20.7262C3.16986 20.7274 0 17.773 0 14.4027C0 10.8334 3.4097 8.05927 6.34347 8.05927C9.41189 8.05927 11.7639 9.48076 14.6896 11.7714C18.79 7.92589 22.8653 4.19996 25.9519 2.14851C29.9139 -0.484691 36.005 -1.13595 39.9789 2.71209C44.4876 7.07738 42.8263 15.4811 39.7516 19.1237C38.6038 20.4832 36.1303 22.8878 32.4569 23.7101C31.6096 23.9016 30.7437 23.9989 29.8751 24ZM17.17 13.7728C18.7386 15.054 20.5133 16.4974 22.6637 18.0792C25.4234 20.1087 27.8531 20.8389 29.9189 20.8389C33.6223 20.8389 36.1566 18.4938 37.3413 17.0904C40.664 13.1547 39.9006 7.03104 37.7847 4.98147C34.6812 1.97568 30.0529 3.21243 27.699 4.7767C24.8911 6.64279 21.0631 10.1258 17.17 13.7728ZM6.34347 11.2154C4.93827 11.2154 3.15546 12.7183 3.15546 14.4034C3.15546 16.0315 4.91885 17.5739 6.78307 17.5739C8.03549 17.5739 9.4457 16.7047 11.8165 14.4748L12.3632 13.9606C10.0894 12.2148 8.34358 11.2154 6.34347 11.2154Z" fill="#2FE4AB"/>
<path opacity="0.92" d="M11.8163 14.4747C9.44548 16.7046 8.03401 17.5738 6.78285 17.5738C6.47496 17.5728 6.1685 17.532 5.87109 17.4523V20.6648C6.17322 20.7065 6.47786 20.7274 6.78285 20.7274C9.27265 20.7274 11.3817 19.2138 13.9786 16.7716L14.8503 15.9513L12.363 13.9587L11.8163 14.4747Z" fill="url(#paint0_linear_4357_43)"/>
<g opacity="0.92">
<path opacity="0.92" d="M14.6895 11.7726L17.1699 13.7734C18.9345 12.1195 20.686 10.5008 22.3354 9.04987L20.1011 6.81369C18.359 8.34915 16.5274 10.048 14.6895 11.7726Z" fill="url(#paint1_linear_4357_43)"/>
</g>
<defs>
<linearGradient id="paint0_linear_4357_43" x1="12.8051" y1="14.2587" x2="7.81296" y2="19.2502" gradientUnits="userSpaceOnUse">
<stop stop-color="#0F7C76"/>
<stop offset="1" stop-color="#2FE4AB"/>
</linearGradient>
<linearGradient id="paint1_linear_4357_43" x1="16.0633" y1="12.8603" x2="20.9891" y2="7.93398" gradientUnits="userSpaceOnUse">
<stop stop-color="#0F7C76"/>
<stop offset="1" stop-color="#2FE4AB"/>
</linearGradient>
</defs>
</svg>
